<?xml version="1.0" encoding="UTF-8" standalone="no"?>
<svg
   xmlns:dc="http://purl.org/dc/elements/1.1/"
   xmlns:cc="http://creativecommons.org/ns#"
   xmlns:rdf="http://www.w3.org/1999/02/22-rdf-syntax-ns#"
   xmlns:svg="http://www.w3.org/2000/svg"
   xmlns="http://www.w3.org/2000/svg"
   viewBox="0 0 135.70267 74.636803"
   height="74.636803"
   width="135.70267"
   xml:space="preserve"
   id="svg2"
   version="1.1"><metadata
     id="metadata8"><rdf:RDF><cc:Work
         rdf:about=""><dc:format>image/svg+xml</dc:format><dc:type
           rdf:resource="http://purl.org/dc/dcmitype/StillImage" /></cc:Work></rdf:RDF></metadata><defs
     id="defs6"><clipPath
       id="clipPath18"
       clipPathUnits="userSpaceOnUse"><path
         id="path16"
         d="M 0,55.978 H 101.777 V 0 H 0 Z" /></clipPath><linearGradient
       id="linearGradient68"
       spreadMethod="pad"
       gradientTransform="matrix(63.670341,0,0,-63.670341,10.897655,38.121159)"
       gradientUnits="userSpaceOnUse"
       y2="0"
       x2="1"
       y1="0"
       x1="0"><stop
         id="stop60"
         offset="0"
         style="stop-opacity:1;stop-color:#fff200" /><stop
         id="stop62"
         offset="0.241171"
         style="stop-opacity:1;stop-color:#fff200" /><stop
         id="stop64"
         offset="0.77400789"
         style="stop-opacity:1;stop-color:#fffff7" /><stop
         id="stop66"
         offset="1"
         style="stop-opacity:1;stop-color:#fffff7" /></linearGradient><linearGradient
       id="linearGradient90"
       spreadMethod="pad"
       gradientTransform="matrix(-3.5623794,-20.203257,-20.203257,3.5623794,88.665001,44.77367)"
       gradientUnits="userSpaceOnUse"
       y2="0"
       x2="1"
       y1="0"
       x1="0"><stop
         id="stop84"
         offset="0"
         style="stop-opacity:1;stop-color:#fff200" /><stop
         id="stop86"
         offset="0.0198769"
         style="stop-opacity:1;stop-color:#fff200" /><stop
         id="stop88"
         offset="1"
         style="stop-opacity:1;stop-color:#fffff7" /></linearGradient><linearGradient
       id="linearGradient114"
       spreadMethod="pad"
       gradientTransform="matrix(-1.7531053,-20.038084,-20.038084,1.7531053,84.086136,41.111759)"
       gradientUnits="userSpaceOnUse"
       y2="0"
       x2="1"
       y1="0"
       x1="0"><stop
         id="stop106"
         offset="0"
         style="stop-opacity:1;stop-color:#2f357e" /><stop
         id="stop108"
         offset="0.0655094"
         style="stop-opacity:1;stop-color:#2f357e" /><stop
         id="stop110"
         offset="0.2029523"
         style="stop-opacity:1;stop-color:#2f357e" /><stop
         id="stop112"
         offset="1"
         style="stop-opacity:1;stop-color:#ffffff" /></linearGradient><clipPath
       id="clipPath124"
       clipPathUnits="userSpaceOnUse"><path
         id="path122"
         d="M 0,55.978 H 101.777 V 0 H 0 Z" /></clipPath></defs><g
     transform="matrix(1.3333333,0,0,-1.3333333,0,74.6368)"
     id="g10"><g
       id="g12"><g
         clip-path="url(#clipPath18)"
         id="g14"><g
           transform="translate(14.1091,30.1277)"
           id="g20"><path
             id="path22"
             style="fill:#272b71;fill-opacity:1;fill-rule:nonzero;stroke:none"
             d="m 0,0 v -3.225 h 1.039 c 0.697,0 1.171,0.05 1.422,0.147 0.25,0.099 0.456,0.276 0.617,0.532 0.16,0.255 0.24,0.569 0.24,0.941 0,0.377 -0.083,0.695 -0.248,0.954 -0.166,0.258 -0.369,0.432 -0.613,0.52 C 2.214,-0.043 1.7,0 0.915,0 Z M -1.871,-9.419 V 1.918 H 1.146 C 2.27,1.918 3.003,1.864 3.351,1.756 3.9,1.581 4.355,1.207 4.714,0.634 5.071,0.062 5.251,-0.675 5.251,-1.577 5.251,-2.397 5.098,-3.084 4.787,-3.639 4.479,-4.193 4.091,-4.582 3.627,-4.806 3.163,-5.03 2.364,-5.143 1.229,-5.143 H 0 v -4.276 z" /></g><g
           transform="translate(21.4304,20.7083)"
           id="g24"><path
             id="path26"
             style="fill:#272b71;fill-opacity:1;fill-rule:nonzero;stroke:none"
             d="M 0,0 V 11.337 H 6.898 V 9.419 H 1.871 V 6.906 H 6.542 V 4.996 H 1.871 V 1.918 H 7.067 L 7.067,0 Z" /></g><g
           transform="translate(32.7028,20.7083)"
           id="g28"><path
             id="path30"
             style="fill:#272b71;fill-opacity:1;fill-rule:nonzero;stroke:none"
             d="m 0,0 v 9.419 h -2.761 v 1.918 H 4.625 V 9.419 H 1.872 L 1.872,0 Z" /></g><g
           transform="translate(40.9431,27.2513)"
           id="g32"><path
             id="path34"
             style="fill:#272b71;fill-opacity:1;fill-rule:nonzero;stroke:none"
             d="M 0,0 H 1.394 C 2.243,0 2.785,0.037 3.019,0.112 3.249,0.187 3.438,0.337 3.581,0.564 3.727,0.791 3.798,1.093 3.798,1.469 3.798,1.83 3.727,2.12 3.581,2.339 3.438,2.558 3.241,2.708 2.994,2.792 2.818,2.848 2.312,2.876 1.471,2.876 H 0 Z M -1.871,-6.543 V 4.794 h 3.952 c 1.01,0 1.732,-0.101 2.166,-0.305 C 4.681,4.285 5.035,3.933 5.313,3.429 5.592,2.927 5.731,2.325 5.731,1.624 5.731,0.737 5.52,0.022 5.093,-0.519 4.668,-1.06 4.063,-1.4 3.279,-1.54 3.683,-1.828 4.016,-2.144 4.278,-2.487 4.54,-2.83 4.898,-3.444 5.354,-4.331 L 6.481,-6.543 H 4.241 L 2.883,-4.076 C 2.396,-3.184 2.063,-2.626 1.889,-2.402 1.712,-2.177 1.526,-2.023 1.33,-1.937 1.135,-1.853 0.82,-1.81 0.389,-1.81 H 0 v -4.733 z" /></g><g
           transform="translate(61.9167,20.6248)"
           id="g36"><path
             id="path38"
             style="fill:#272b71;fill-opacity:1;fill-rule:nonzero;stroke:none"
             d="M 0,0 V 11.337 H 6.898 V 9.419 H 1.871 V 6.906 H 6.542 V 4.996 H 1.871 V 1.918 H 7.068 V 0 Z" /></g><g
           transform="translate(71.2429,20.6248)"
           id="g40"><path
             id="path42"
             style="fill:#272b71;fill-opacity:1;fill-rule:nonzero;stroke:none"
             d="m 0,0 v 11.337 h 1.825 l 3.806,-7.57 v 7.57 H 7.379 L 7.379,0 H 5.491 L 1.748,7.394 V 0 Z" /></g><g
           transform="translate(54.4431,25.3601)"
           id="g44"><path
             id="path46"
             style="fill:#5e5f61;fill-opacity:1;fill-rule:nonzero;stroke:none"
             d="m 0,0 c -0.74,0 -1.342,0.565 -1.342,1.264 0,0.697 0.602,1.263 1.342,1.263 0.741,0 1.342,-0.566 1.342,-1.263 C 1.342,0.565 0.741,0 0,0 M 4.462,0.374 5.991,0.687 6.054,1.872 4.462,2.215 c 0,0 0,0.78 -0.624,1.279 L 4.712,4.773 3.869,5.678 2.497,4.836 c 0,0 -0.531,0.499 -1.498,0.593 L 0.687,6.896 H -0.654 L -0.998,5.46 c 0,0 -0.874,-0.156 -1.467,-0.655 L -3.807,5.647 -4.742,4.836 -3.837,3.494 c 0,0 -0.499,-0.374 -0.624,-1.31 L -6.021,1.872 -6.053,0.655 -4.492,0.343 c 0,0 0.186,-0.874 0.624,-1.404 l -0.843,-1.279 0.937,-0.843 1.34,0.781 c 0,0 0.907,-0.531 1.467,-0.531 l 0.375,-1.466 h 1.247 l 0.407,1.528 c 0,0 0.655,-0.062 1.435,0.531 L 3.9,-3.183 4.837,-2.309 3.933,-0.968 c 0,0 0.591,0.531 0.529,1.342" /></g></g></g><g
       id="g48"><g
         id="g50"><g
           id="g56"><g
             id="g58"><path
               id="path70"
               style="fill:url(#linearGradient68);stroke:none"
               d="M 12.541,32.504 23.15,32.63 c 0,0 -13.354,8.361 42.682,10.233 v 0 l 8.735,0.25 -19.968,0.624 c 0,0 -53.664,-0.999 -42.058,-11.233" /></g></g></g></g><g
       id="g72"><g
         id="g74"><g
           id="g80"><g
             id="g82"><path
               id="path92"
               style="fill:url(#linearGradient90);stroke:none"
               d="m 82.556,36.248 3.37,-5.178 c 0,0 3.805,-4.556 2.307,-7.051 v 0 c 0,0 6.99,3.93 1.748,11.17 v 0 l -4.055,5.802 c 0,0 -1.749,2.933 -0.938,4.431 v 0 c 0,0 -6.426,-2.371 -2.432,-9.174" /></g></g></g></g><g
       id="g94"><g
         id="g96"><g
           id="g102"><g
             id="g104"><path
               id="path116"
               style="fill:url(#linearGradient114);stroke:none"
               d="m 78.936,32.504 2.996,-4.617 c 0,0 3.868,-4.991 3.12,-7.051 v 0 c 0,0 5.991,2.746 2.121,8.3 v 0 l -4.431,6.676 c 0,0 -1.747,2.621 -1.559,5.554 v 0 c 0,0 -5.804,-2.371 -2.247,-8.862" /></g></g></g></g><g
       id="g118"><g
         clip-path="url(#clipPath124)"
         id="g120"><g
           transform="translate(22.7351,11.5623)"
           id="g126"><path
             id="path128"
             style="fill:#595a5c;fill-opacity:1;fill-rule:nonzero;stroke:none"
             d="M 0,0 V 6.781 H 5.447 V 5.98 H 0.996 V 3.904 H 5.164 V 3.108 H 0.996 V 0.8 H 5.622 V 0 Z" /></g><g
           transform="translate(29.7243,11.5623)"
           id="g130"><path
             id="path132"
             style="fill:#595a5c;fill-opacity:1;fill-rule:nonzero;stroke:none"
             d="M 0,0 V 6.781 H 1.022 L 4.979,1.457 V 6.781 H 5.937 V 0 H 4.913 L 0.956,5.328 V 0 Z" /></g><g
           transform="translate(40.861,14.222)"
           id="g134"><path
             id="path136"
             style="fill:#595a5c;fill-opacity:1;fill-rule:nonzero;stroke:none"
             d="M 0,0 V 0.795 L 3.191,0.8 V -1.716 C 2.701,-2.068 2.195,-2.332 1.675,-2.509 1.154,-2.687 0.62,-2.775 0.071,-2.775 c -0.74,0 -1.412,0.142 -2.016,0.427 -0.606,0.285 -1.062,0.698 -1.369,1.238 -0.31,0.539 -0.462,1.142 -0.462,1.808 0,0.66 0.152,1.276 0.46,1.848 0.305,0.572 0.746,0.997 1.322,1.274 0.575,0.278 1.238,0.417 1.988,0.417 0.545,0 1.037,-0.08 1.478,-0.238 C 1.912,3.839 2.258,3.618 2.508,3.334 2.758,3.051 2.947,2.681 3.078,2.225 L 2.179,2.002 C 2.065,2.348 1.925,2.619 1.757,2.817 1.589,3.014 1.351,3.172 1.038,3.291 0.727,3.41 0.38,3.469 0,3.469 -0.456,3.469 -0.851,3.406 -1.183,3.282 -1.515,3.157 -1.783,2.993 -1.985,2.789 -2.189,2.585 -2.349,2.362 -2.462,2.118 -2.654,1.699 -2.75,1.244 -2.75,0.754 c 0,-0.605 0.116,-1.11 0.347,-1.517 0.231,-0.407 0.568,-0.71 1.009,-0.907 0.443,-0.197 0.914,-0.296 1.41,-0.296 0.43,0 0.852,0.075 1.263,0.224 0.411,0.15 0.723,0.309 0.936,0.479 V 0 Z" /></g><path
           id="path138"
           style="fill:#595a5c;fill-opacity:1;fill-rule:nonzero;stroke:none"
           d="m 45.692,18.343 h 0.997 v -6.781 h -0.997 z" /><g
           transform="translate(48.4362,11.5623)"
           id="g140"><path
             id="path142"
             style="fill:#595a5c;fill-opacity:1;fill-rule:nonzero;stroke:none"
             d="M 0,0 V 6.781 H 1.022 L 4.979,1.457 V 6.781 H 5.937 V 0 H 4.913 L 0.956,5.328 V 0 Z" /></g><g
           transform="translate(56.0681,11.5623)"
           id="g144"><path
             id="path146"
             style="fill:#595a5c;fill-opacity:1;fill-rule:nonzero;stroke:none"
             d="M 0,0 V 6.781 H 5.447 V 5.98 H 0.996 V 3.904 H 5.164 V 3.108 H 0.996 V 0.8 H 5.622 V 0 Z" /></g><g
           transform="translate(63.0886,11.5623)"
           id="g148"><path
             id="path150"
             style="fill:#595a5c;fill-opacity:1;fill-rule:nonzero;stroke:none"
             d="M 0,0 V 6.781 H 5.447 V 5.98 H 0.996 V 3.904 H 5.164 V 3.108 H 0.996 V 0.8 H 5.622 V 0 Z" /></g><g
           transform="translate(71.1003,15.3504)"
           id="g152"><path
             id="path154"
             style="fill:#595a5c;fill-opacity:1;fill-rule:nonzero;stroke:none"
             d="m 0,0 h 2.145 c 0.455,0 0.81,0.042 1.067,0.127 0.257,0.085 0.452,0.221 0.586,0.407 0.135,0.187 0.2,0.389 0.2,0.609 0,0.32 -0.129,0.584 -0.388,0.791 C 3.353,2.14 2.943,2.243 2.385,2.243 H 0 Z M -0.997,-3.788 V 2.993 H 2.344 C 3.017,2.993 3.525,2.932 3.875,2.81 4.226,2.688 4.504,2.473 4.713,2.165 4.922,1.856 5.026,1.516 5.026,1.143 5.026,0.662 4.854,0.256 4.507,-0.074 4.161,-0.404 3.627,-0.614 2.904,-0.703 3.168,-0.817 3.368,-0.93 3.505,-1.041 3.796,-1.281 4.072,-1.582 4.333,-1.942 L 5.644,-3.788 H 4.39 L 3.393,-2.377 C 3.102,-1.97 2.861,-1.659 2.673,-1.443 2.484,-1.227 2.315,-1.076 2.166,-0.99 2.019,-0.903 1.866,-0.843 1.712,-0.81 1.6,-0.788 1.413,-0.777 1.156,-0.777 H 0 v -3.011 z" /></g><path
           id="path156"
           style="fill:#595a5c;fill-opacity:1;fill-rule:nonzero;stroke:none"
           d="m 77.858,18.343 h 0.997 v -6.781 h -0.997 z" /><g
           transform="translate(80.6022,11.5623)"
           id="g158"><path
             id="path160"
             style="fill:#595a5c;fill-opacity:1;fill-rule:nonzero;stroke:none"
             d="M 0,0 V 6.781 H 1.022 L 4.979,1.457 V 6.781 H 5.937 V 0 H 4.913 L 0.956,5.328 V 0 Z" /></g><g
           transform="translate(91.7399,14.222)"
           id="g162"><path
             id="path164"
             style="fill:#595a5c;fill-opacity:1;fill-rule:nonzero;stroke:none"
             d="M 0,0 V 0.795 L 3.191,0.8 V -1.716 C 2.701,-2.068 2.195,-2.332 1.675,-2.509 1.154,-2.687 0.62,-2.775 0.071,-2.775 c -0.74,0 -1.412,0.142 -2.016,0.427 -0.606,0.285 -1.062,0.698 -1.369,1.238 -0.31,0.539 -0.462,1.142 -0.462,1.808 0,0.66 0.152,1.276 0.46,1.848 0.305,0.572 0.746,0.997 1.322,1.274 0.575,0.278 1.238,0.417 1.988,0.417 0.545,0 1.037,-0.08 1.478,-0.238 C 1.912,3.839 2.258,3.618 2.508,3.334 2.758,3.051 2.947,2.681 3.078,2.225 L 2.179,2.002 C 2.065,2.348 1.925,2.619 1.757,2.817 1.589,3.014 1.351,3.172 1.038,3.291 0.727,3.41 0.38,3.469 0,3.469 -0.456,3.469 -0.851,3.406 -1.183,3.282 -1.515,3.157 -1.783,2.993 -1.985,2.789 -2.189,2.585 -2.349,2.362 -2.462,2.118 -2.654,1.699 -2.75,1.244 -2.75,0.754 c 0,-0.605 0.116,-1.11 0.347,-1.517 0.231,-0.407 0.568,-0.71 1.009,-0.907 0.443,-0.197 0.914,-0.296 1.41,-0.296 0.43,0 0.852,0.075 1.263,0.224 0.411,0.15 0.723,0.309 0.936,0.479 V 0 Z" /></g></g></g></g></svg>